<svg width="100" height="100" viewBox="0 0 100 100" fill="none" xmlns="http://www.w3.org/2000/svg">
<path d="M54.1667 12.5036C53.7688 12.5 53.322 12.5 52.8113 12.5H34.1675C29.5004 12.5 27.1651 12.5 25.3825 13.4083C23.8145 14.2072 22.5406 15.4811 21.7416 17.0492C20.8333 18.8318 20.8333 21.167 20.8333 25.8341V74.1675C20.8333 78.8346 20.8333 81.1669 21.7416 82.9495C22.5406 84.5175 23.8145 85.7937 25.3825 86.5926C27.1634 87.5 29.4959 87.5 34.1539 87.5L65.8462 87.5C70.5042 87.5 72.8333 87.5 74.6142 86.5926C76.1822 85.7937 77.4603 84.5175 78.2593 82.9495C79.1667 81.1687 79.1667 78.8395 79.1667 74.1816V38.857C79.1667 38.3457 79.1666 37.8984 79.1628 37.5M54.1667 12.5036C55.3568 12.5145 56.1098 12.5577 56.8285 12.7303C57.6788 12.9344 58.4911 13.2719 59.2367 13.7288C60.0774 14.244 60.7993 14.9659 62.2396 16.4062L75.2624 29.4291C76.7037 30.8704 77.4203 31.589 77.9356 32.43C78.3926 33.1756 78.7306 33.9886 78.9347 34.8389C79.1072 35.5573 79.1514 36.3104 79.1628 37.5M54.1667 12.5036V24.1667C54.1667 28.8338 54.1667 31.1657 55.075 32.9483C55.8739 34.5163 57.1478 35.7937 58.7158 36.5926C60.4967 37.5 62.8292 37.5 67.4872 37.5H79.1628M79.1628 37.5H79.1675" stroke="#6C8064" stroke-width="2" stroke-linecap="round" stroke-linejoin="round"/>
</svg>
